<svg xmlns="http://www.w3.org/2000/svg" version="1.1" viewBox="138.93 68.02 87.97 84.22">
<path fill="#b6fcfe" fill-opacity="0.996" d="   M 180.22 137.00   Q 176.00 136.09 171.37 132.39   Q 155.22 119.53 149.41 102.89   Q 144.73 89.50 154.00 79.79   C 168.01 65.12 193.78 64.24 209.38 76.78   A 0.19 0.17 37.7 0 1 209.42 77.02   L 209.41 77.03   A 0.19 0.18 31.1 0 1 209.17 77.08   Q 191.09 66.89 171.61 72.79   Q 161.24 75.93 155.22 83.73   C 147.54 93.68 153.27 105.12 158.75 114.33   Q 167.13 128.41 180.32 136.74   A 0.14 0.14 0.0 0 1 180.22 137.00   Z"/>
<path fill="#b6fcfe" fill-opacity="0.996" d="   M 156.04 101.84   C 167.21 90.92 183.88 85.22 199.25 83.94   Q 202.23 83.69 206.79 84.32   C 231.20 87.65 230.24 115.75 220.43 131.56   C 210.43 147.67 192.53 154.96 173.74 151.26   C 153.72 147.32 139.48 129.26 138.95 109.03   C 138.77 102.15 140.52 95.56 144.36 89.91   A 0.09 0.09 0.0 0 1 144.52 89.99   Q 137.75 108.71 146.29 125.55   C 152.22 137.24 162.70 145.91 175.55 148.13   C 198.83 152.15 219.68 137.19 223.02 113.56   Q 224.25 104.81 220.86 97.39   C 216.04 86.85 202.60 86.55 192.36 88.13   Q 175.38 90.75 160.56 99.60   Q 157.73 101.30 156.20 102.07   A 0.14 0.14 0.0 0 1 156.04 101.84   Z"/>
<path fill="#b6fcfe" fill-opacity="0.996" d="   M 170.84 143.03   Q 181.87 140.49 189.87 132.63   Q 207.47 115.37 208.85 90.69   A 0.15 0.15 0.0 0 1 209.15 90.67   Q 209.66 93.18 209.62 95.23   Q 209.09 118.91 191.74 135.23   C 186.89 139.80 177.67 144.38 170.85 143.23   A 0.10 0.10 0.0 0 1 170.84 143.03   Z"/>
</svg>