<?xml version="1.0" encoding="UTF-8" standalone="no"?>
<!DOCTYPE svg PUBLIC "-//W3C//DTD SVG 1.1//EN" "http://www.w3.org/Graphics/SVG/1.1/DTD/svg11.dtd">
<svg xmlns="http://www.w3.org/2000/svg" version="1.1" viewBox="0.00 0.00 1536.00 1024.00">
<g stroke-width="2.00" fill="none" stroke-linecap="butt">
<path stroke="#5d8181" stroke-opacity="0.996" vector-effect="non-scaling-stroke" d="
  M 851.50 303.73
  Q 850.56 303.75 849.46 303.27
  C 842.94 300.40 835.44 297.33 828.32 295.43
  Q 797.09 287.07 767.51 288.68
  Q 755.81 289.32 738.23 292.57
  Q 723.83 295.23 711.04 300.22
  Q 696.46 305.91 685.38 312.13
  Q 675.02 317.94 668.55 323.30
  Q 658.88 331.31 654.34 335.83
  Q 642.52 347.63 634.48 362.71
  Q 630.81 369.58 628.14 380.30
  Q 626.64 386.29 626.57 394.96
  Q 626.49 405.75 627.06 409.72
  C 628.63 420.73 631.22 432.01 635.15 442.02
  Q 642.90 461.74 652.94 478.08
  Q 656.30 483.56 662.60 492.91
  Q 688.48 531.27 724.69 559.03
  Q 741.43 571.86 761.04 579.71"
/>
<path stroke="#5d8181" stroke-opacity="0.996" vector-effect="non-scaling-stroke" d="
  M 851.50 303.73
  Q 867.11 311.81 881.73 321.83"
/>
<path stroke="#5d8181" stroke-opacity="0.996" vector-effect="non-scaling-stroke" d="
  M 886.49 325.59
  Q 886.66 326.71 884.73 325.88"
/>
<path stroke="#5d8181" stroke-opacity="0.996" vector-effect="non-scaling-stroke" d="
  M 881.04 323.72
  Q 880.45 322.83 879.54 322.99"
/>
<path stroke="#5d8181" stroke-opacity="0.996" vector-effect="non-scaling-stroke" d="
  M 879.45 322.84
  Q 877.16 320.84 874.25 319.87"
/>
<path stroke="#5d8181" stroke-opacity="0.996" vector-effect="non-scaling-stroke" d="
  M 874.12 320.15
  Q 873.30 318.99 870.91 317.91
  Q 832.58 300.48 792.80 298.44
  Q 774.31 297.49 756.70 300.16
  Q 753.95 300.58 739.78 303.48
  Q 732.44 304.99 725.25 307.46
  Q 714.14 311.29 711.08 312.62
  C 701.00 317.00 688.31 323.95 678.41 331.99
  Q 670.55 338.39 670.34 338.58
  C 651.83 355.33 638.50 377.67 640.28 403.52
  C 641.17 416.47 644.78 429.51 649.47 441.54
  C 659.98 468.51 675.79 493.74 693.78 516.74
  C 698.74 523.10 705.42 531.35 711.49 537.73
  Q 731.82 559.08 757.94 575.76
  Q 760.41 577.33 762.89 578.56"
/>
<path stroke="#5d8181" stroke-opacity="0.996" vector-effect="non-scaling-stroke" d="
  M 765.75 580.94
  Q 765.42 580.82 765.04 580.85"
/>
<path stroke="#5d8181" stroke-opacity="0.996" vector-effect="non-scaling-stroke" d="
  M 764.21 580.68
  L 763.29 580.46"
/>
<path stroke="#5d8181" stroke-opacity="0.996" vector-effect="non-scaling-stroke" d="
  M 601.93 396.04
  Q 602.10 396.47 601.82 397.07
  Q 590.52 421.47 589.01 447.81
  C 588.34 459.54 588.53 471.31 590.29 483.48
  C 595.06 516.38 608.35 548.03 629.36 573.87
  C 650.43 599.80 676.68 619.70 708.13 631.60
  C 713.33 633.56 723.05 637.12 729.92 638.60
  Q 767.97 646.77 802.96 641.74
  Q 855.10 634.24 896.17 598.99
  Q 918.02 580.24 934.72 552.45
  Q 939.16 545.07 943.44 535.12
  Q 948.41 523.54 950.48 517.01
  Q 954.64 503.88 956.03 496.76
  Q 957.09 491.34 959.08 475.03
  Q 959.44 472.05 959.30 454.85
  Q 959.28 452.03 958.73 447.18
  Q 958.33 443.61 957.89 439.53
  Q 957.06 431.85 953.55 420.25
  Q 951.47 413.39 947.15 405.12
  C 937.62 386.89 922.78 372.89 904.00 365.30
  Q 896.66 362.34 891.59 360.94
  Q 871.54 355.41 849.51 355.91
  Q 824.98 356.48 799.49 362.22
  Q 757.96 371.57 720.09 389.74
  C 713.90 392.71 707.65 396.62 700.89 400.39
  Q 696.60 402.79 680.26 414.39
  Q 676.41 417.12 670.72 422.13
  Q 667.79 424.71 661.40 430.16
  Q 660.46 430.96 659.95 430.97"
/>
<path stroke="#5d8181" stroke-opacity="0.996" vector-effect="non-scaling-stroke" d="
  M 601.93 396.04
  L 607.71 385.80"
/>
<path stroke="#5d8181" stroke-opacity="0.996" vector-effect="non-scaling-stroke" d="
  M 608.03 385.23
  Q 608.92 384.47 609.18 383.48"
/>
<path stroke="#5d8181" stroke-opacity="0.996" vector-effect="non-scaling-stroke" d="
  M 609.85 382.71
  Q 610.49 382.57 610.43 381.99"
/>
<path stroke="#5d8181" stroke-opacity="0.996" vector-effect="non-scaling-stroke" d="
  M 610.75 381.67
  Q 611.10 381.38 611.41 381.28
  Q 611.83 381.14 612.01 381.51
  Q 612.17 381.84 612.09 382.35"
/>
<path stroke="#5d8181" stroke-opacity="0.996" vector-effect="non-scaling-stroke" d="
  M 611.70 382.97
  Q 611.33 383.27 611.35 383.79"
/>
<path stroke="#5d8181" stroke-opacity="0.996" vector-effect="non-scaling-stroke" d="
  M 610.96 384.49
  Q 610.38 384.93 609.84 386.11
  Q 606.54 393.33 605.50 396.96
  Q 597.57 424.74 598.25 453.05
  Q 598.39 458.52 599.04 465.43
  Q 599.91 474.52 600.50 477.76
  C 602.87 490.55 605.88 502.69 610.64 514.06
  C 613.20 520.16 616.47 528.21 619.53 533.98
  Q 635.87 564.79 660.07 586.66
  Q 673.43 598.74 692.15 609.55
  C 696.14 611.85 700.20 613.59 705.55 616.06
  C 721.60 623.47 739.29 627.85 756.28 629.41
  Q 760.84 629.82 766.09 630.13
  Q 771.91 630.48 775.93 630.41
  Q 798.44 630.03 818.51 625.00
  Q 855.72 615.68 885.00 590.24
  C 893.41 582.93 902.55 573.93 909.34 564.30"
/>
<path stroke="#5d8181" stroke-opacity="0.996" vector-effect="non-scaling-stroke" d="
  M 909.34 564.30
  Q 909.49 564.16 909.67 563.93
  C 920.66 550.28 928.49 535.34 934.85 519.20
  Q 942.85 498.92 944.85 476.74
  Q 945.93 464.67 945.72 455.11
  C 945.63 450.95 944.78 446.16 944.23 441.74
  Q 942.28 426.32 935.33 412.19
  C 925.36 391.93 908.46 379.25 886.99 373.52
  C 868.17 368.50 846.66 368.54 827.27 370.65
  Q 803.22 373.26 780.76 378.82
  Q 767.04 382.21 747.96 388.70
  Q 732.89 393.82 716.21 401.57
  Q 693.03 412.34 671.87 425.10
  Q 670.48 425.94 669.46 427.08"
/>
<path stroke="#5d8181" stroke-opacity="0.996" vector-effect="non-scaling-stroke" d="
  M 668.75 427.39
  L 662.02 432.01"
/>
<path stroke="#5d8181" stroke-opacity="0.996" vector-effect="non-scaling-stroke" d="
  M 660.78 432.43
  Q 658.31 433.75 658.38 432.55"
/>
<path stroke="#5d8181" stroke-opacity="0.996" vector-effect="non-scaling-stroke" d="
  M 659.10 431.71
  Q 659.81 431.51 659.95 430.97"
/>
<path stroke="#5d8181" stroke-opacity="0.996" vector-effect="non-scaling-stroke" d="
  M 728.75 606.69
  Q 734.26 605.87 739.74 605.33
  C 744.54 604.85 748.44 603.88 753.49 602.70
  Q 776.90 597.25 796.56 583.30
  Q 817.90 568.17 835.42 545.91
  Q 853.65 522.72 865.80 495.79
  Q 866.43 494.39 870.64 484.11
  Q 873.53 477.06 874.95 472.23
  C 876.48 467.01 879.12 459.45 880.42 453.20
  Q 881.89 446.14 884.19 432.05
  C 885.31 425.21 885.54 417.89 886.04 410.50
  Q 886.61 402.11 885.02 386.74
  Q 884.66 383.30 883.46 384.39"
/>
<path stroke="#5d8181" stroke-opacity="0.996" vector-effect="non-scaling-stroke" d="
  M 728.58 606.56
  Q 725.85 606.52 723.75 605.77
  A 0.27 0.27 0.0 0 1 723.80 605.25
  C 726.96 604.77 728.95 604.78 732.29 603.89
  Q 741.52 601.42 751.77 596.79
  C 771.84 587.72 789.09 576.19 804.56 561.17
  Q 815.89 550.17 824.22 539.97
  C 846.93 512.15 864.28 479.89 874.59 445.11
  Q 881.50 421.82 883.15 396.18"
/>
<path stroke="#5d8181" stroke-opacity="0.996" vector-effect="non-scaling-stroke" d="
  M 883.15 396.11
  Q 884.11 391.06 883.51 385.92"
/>
</g>
<path fill="#010202" fill-opacity="0.996" d="
  M 851.50 303.73
  Q 850.56 303.75 849.46 303.27
  C 842.94 300.40 835.44 297.33 828.32 295.43
  Q 797.09 287.07 767.51 288.68
  Q 755.81 289.32 738.23 292.57
  Q 723.83 295.23 711.04 300.22
  Q 696.46 305.91 685.38 312.13
  Q 675.02 317.94 668.55 323.30
  Q 658.88 331.31 654.34 335.83
  Q 642.52 347.63 634.48 362.71
  Q 630.81 369.58 628.14 380.30
  Q 626.64 386.29 626.57 394.96
  Q 626.49 405.75 627.06 409.72
  C 628.63 420.73 631.22 432.01 635.15 442.02
  Q 642.90 461.74 652.94 478.08
  Q 656.30 483.56 662.60 492.91
  Q 688.48 531.27 724.69 559.03
  Q 741.43 571.86 761.04 579.71
  Q 751.91 576.99 743.55 572.21
  Q 731.45 565.29 722.37 558.13
  Q 701.24 541.48 685.24 523.26
  Q 670.62 506.60 655.97 484.26
  Q 641.49 462.18 632.40 436.52
  C 631.03 432.65 630.43 429.17 629.31 425.34
  Q 628.40 422.19 627.53 417.08
  Q 626.26 409.54 626.16 408.78
  Q 625.92 406.88 625.81 394.75
  Q 625.74 386.80 627.24 380.84
  Q 630.39 368.27 634.95 360.44
  Q 638.20 354.86 642.55 348.63
  Q 646.29 343.28 651.48 337.81
  Q 664.41 324.19 681.05 313.81
  Q 684.37 311.74 698.27 304.85
  Q 708.79 299.64 723.72 295.31
  Q 733.01 292.61 750.82 289.76
  Q 755.94 288.94 758.12 288.89
  C 761.79 288.80 763.99 288.19 767.89 288.06
  Q 802.83 286.87 833.06 296.17
  Q 840.81 298.55 851.50 303.73
  Z"
/>
<path fill="#b8ffff" fill-opacity="0.996" d="
  M 851.50 303.73
  Q 867.11 311.81 881.73 321.83
  L 886.49 325.59
  Q 886.66 326.71 884.73 325.88
  L 881.04 323.72
  Q 880.45 322.83 879.54 322.99
  Q 879.50 322.92 879.45 322.84
  Q 877.16 320.84 874.25 319.87
  Q 874.19 320.01 874.12 320.15
  Q 873.30 318.99 870.91 317.91
  Q 832.58 300.48 792.80 298.44
  Q 774.31 297.49 756.70 300.16
  Q 753.95 300.58 739.78 303.48
  Q 732.44 304.99 725.25 307.46
  Q 714.14 311.29 711.08 312.62
  C 701.00 317.00 688.31 323.95 678.41 331.99
  Q 670.55 338.39 670.34 338.58
  C 651.83 355.33 638.50 377.67 640.28 403.52
  C 641.17 416.47 644.78 429.51 649.47 441.54
  C 659.98 468.51 675.79 493.74 693.78 516.74
  C 698.74 523.10 705.42 531.35 711.49 537.73
  Q 731.82 559.08 757.94 575.76
  Q 760.41 577.33 762.89 578.56
  C 764.22 579.17 765.16 579.87 766.14 580.88
  A 0.06 0.06 0.0 0 1 766.09 580.98
  Q 765.94 580.94 765.75 580.94
  Q 765.42 580.82 765.04 580.85
  L 764.21 580.68
  L 763.29 580.46
  L 761.04 579.71
  Q 741.43 571.86 724.69 559.03
  Q 688.48 531.27 662.60 492.91
  Q 656.30 483.56 652.94 478.08
  Q 642.90 461.74 635.15 442.02
  C 631.22 432.01 628.63 420.73 627.06 409.72
  Q 626.49 405.75 626.57 394.96
  Q 626.64 386.29 628.14 380.30
  Q 630.81 369.58 634.48 362.71
  Q 642.52 347.63 654.34 335.83
  Q 658.88 331.31 668.55 323.30
  Q 675.02 317.94 685.38 312.13
  Q 696.46 305.91 711.04 300.22
  Q 723.83 295.23 738.23 292.57
  Q 755.81 289.32 767.51 288.68
  Q 797.09 287.07 828.32 295.43
  C 835.44 297.33 842.94 300.40 849.46 303.27
  Q 850.56 303.75 851.50 303.73
  Z"
/>
<path fill="#010202" fill-opacity="0.996" d="
  M 874.12 320.15
  Q 864.58 315.35 857.97 313.05
  Q 852.63 311.20 844.92 308.49
  Q 841.89 307.42 839.04 306.72
  C 834.98 305.73 830.99 304.37 826.82 303.69
  Q 824.99 303.40 822.60 302.76
  Q 820.13 302.10 818.38 301.84
  Q 791.77 297.87 771.74 299.10
  Q 757.26 300.00 743.23 303.49
  Q 741.01 304.04 738.08 304.55
  Q 734.38 305.21 732.95 305.65
  Q 716.95 310.61 710.38 313.68
  Q 702.51 317.36 694.36 321.88
  Q 688.68 325.03 679.76 331.76
  Q 667.31 341.16 658.00 352.74
  Q 647.42 365.87 643.20 380.99
  Q 642.16 384.70 641.91 387.33
  Q 641.78 388.69 641.21 391.60
  C 640.61 394.67 640.84 396.98 640.90 401.46
  Q 640.95 404.56 641.27 407.02
  Q 642.61 417.22 645.15 426.39
  Q 645.60 428.04 647.51 434.14
  Q 648.70 437.94 650.24 441.79
  Q 662.33 471.92 684.00 502.51
  Q 694.45 517.26 705.36 529.84
  Q 716.23 542.39 730.05 554.22
  Q 745.62 567.55 762.89 578.56
  Q 760.41 577.33 757.94 575.76
  Q 731.82 559.08 711.49 537.73
  C 705.42 531.35 698.74 523.10 693.78 516.74
  C 675.79 493.74 659.98 468.51 649.47 441.54
  C 644.78 429.51 641.17 416.47 640.28 403.52
  C 638.50 377.67 651.83 355.33 670.34 338.58
  Q 670.55 338.39 678.41 331.99
  C 688.31 323.95 701.00 317.00 711.08 312.62
  Q 714.14 311.29 725.25 307.46
  Q 732.44 304.99 739.78 303.48
  Q 753.95 300.58 756.70 300.16
  Q 774.31 297.49 792.80 298.44
  Q 832.58 300.48 870.91 317.91
  Q 873.30 318.99 874.12 320.15
  Z"
/>
<path fill="#010202" fill-opacity="0.996" d="
  M 881.73 321.83
  Q 867.11 311.81 851.50 303.73
  Q 852.40 303.77 853.23 304.16
  Q 868.58 311.28 881.73 321.83
  Z"
/>
<path fill="#010202" fill-opacity="0.996" d="
  M 879.45 322.84
  Q 876.54 321.87 874.25 319.87
  Q 877.16 320.84 879.45 322.84
  Z"
/>
<path fill="#010202" fill-opacity="0.996" d="
  M 881.04 323.72
  Q 880.23 323.68 879.54 322.99
  Q 880.45 322.83 881.04 323.72
  Z"
/>
<path fill="#010202" fill-opacity="0.996" d="
  M 884.73 325.88
  Q 886.66 326.71 886.49 325.59
  Q 887.15 325.99 887.06 326.50
  A 0.46 0.45 -83.0 0 1 886.61 326.86
  Q 885.41 326.82 884.73 325.88
  Z"
/>
<path fill="#010202" fill-opacity="0.996" d="
  M 601.93 396.04
  Q 602.10 396.47 601.82 397.07
  Q 590.52 421.47 589.01 447.81
  C 588.34 459.54 588.53 471.31 590.29 483.48
  C 595.06 516.38 608.35 548.03 629.36 573.87
  C 650.43 599.80 676.68 619.70 708.13 631.60
  C 713.33 633.56 723.05 637.12 729.92 638.60
  Q 767.97 646.77 802.96 641.74
  Q 855.10 634.24 896.17 598.99
  Q 918.02 580.24 934.72 552.45
  Q 939.16 545.07 943.44 535.12
  Q 948.41 523.54 950.48 517.01
  Q 954.64 503.88 956.03 496.76
  Q 957.09 491.34 959.08 475.03
  Q 959.44 472.05 959.30 454.85
  Q 959.28 452.03 958.73 447.18
  Q 958.33 443.61 957.89 439.53
  Q 957.06 431.85 953.55 420.25
  Q 951.47 413.39 947.15 405.12
  C 937.62 386.89 922.78 372.89 904.00 365.30
  Q 896.66 362.34 891.59 360.94
  Q 871.54 355.41 849.51 355.91
  Q 824.98 356.48 799.49 362.22
  Q 757.96 371.57 720.09 389.74
  C 713.90 392.71 707.65 396.62 700.89 400.39
  Q 696.60 402.79 680.26 414.39
  Q 676.41 417.12 670.72 422.13
  Q 667.79 424.71 661.40 430.16
  Q 660.46 430.96 659.95 430.97
  Q 670.85 420.78 675.48 417.24
  Q 690.98 405.37 701.38 399.41
  Q 710.18 394.36 713.91 392.17
  C 718.67 389.37 722.36 388.03 727.57 385.36
  Q 728.50 384.89 733.21 383.03
  C 738.48 380.95 747.55 376.96 754.85 374.42
  Q 764.35 371.13 775.95 367.47
  Q 778.35 366.71 794.39 362.67
  Q 804.94 360.01 813.04 358.80
  Q 831.73 356.00 843.00 355.36
  Q 866.00 354.07 887.35 359.15
  C 900.44 362.26 914.07 368.13 924.71 376.57
  C 936.55 385.96 945.92 398.95 951.71 413.02
  Q 955.37 421.91 957.84 434.23
  Q 958.94 439.71 959.02 442.61
  C 959.13 446.57 959.94 449.58 959.95 453.81
  Q 959.98 465.19 959.95 469.82
  Q 959.93 473.04 959.16 479.66
  C 958.13 488.45 956.94 496.40 954.51 505.80
  Q 951.05 519.14 944.88 533.57
  Q 938.66 548.08 931.13 559.55
  Q 911.94 588.79 884.77 609.03
  Q 870.81 619.43 851.52 628.41
  Q 846.68 630.66 843.63 631.64
  C 840.02 632.81 836.43 634.43 832.99 635.55
  Q 819.13 640.06 802.73 642.44
  Q 796.86 643.30 789.47 643.80
  Q 769.90 645.11 751.50 642.91
  Q 743.52 641.96 737.05 640.46
  Q 734.79 639.94 732.93 639.94
  A 3.54 3.47 51.3 0 1 732.10 639.84
  Q 709.40 634.13 690.97 624.81
  Q 689.75 624.19 688.58 623.61
  Q 671.80 615.21 654.74 601.00
  Q 654.68 600.94 644.80 591.78
  Q 639.17 586.55 635.38 582.07
  Q 622.88 567.32 617.21 558.32
  Q 595.23 523.45 589.54 483.25
  Q 585.77 456.67 590.65 428.91
  C 592.49 418.44 596.26 408.23 600.60 398.32
  Q 601.16 397.04 601.93 396.04
  Z"
/>
<path fill="#b8ffff" fill-opacity="0.996" d="
  M 601.93 396.04
  L 607.71 385.80
  L 608.03 385.23
  Q 608.92 384.47 609.18 383.48
  L 609.85 382.71
  Q 610.49 382.57 610.43 381.99
  L 610.75 381.67
  Q 611.10 381.38 611.41 381.28
  Q 611.83 381.14 612.01 381.51
  Q 612.17 381.84 612.09 382.35
  L 611.70 382.97
  Q 611.33 383.27 611.35 383.79
  L 610.96 384.49
  Q 610.38 384.93 609.84 386.11
  Q 606.54 393.33 605.50 396.96
  Q 597.57 424.74 598.25 453.05
  Q 598.39 458.52 599.04 465.43
  Q 599.91 474.52 600.50 477.76
  C 602.87 490.55 605.88 502.69 610.64 514.06
  C 613.20 520.16 616.47 528.21 619.53 533.98
  Q 635.87 564.79 660.07 586.66
  Q 673.43 598.74 692.15 609.55
  C 696.14 611.85 700.20 613.59 705.55 616.06
  C 721.60 623.47 739.29 627.85 756.28 629.41
  Q 760.84 629.82 766.09 630.13
  Q 771.91 630.48 775.93 630.41
  Q 798.44 630.03 818.51 625.00
  Q 855.72 615.68 885.00 590.24
  C 893.41 582.93 902.55 573.93 909.34 564.30
  Q 909.49 564.16 909.67 563.93
  C 920.66 550.28 928.49 535.34 934.85 519.20
  Q 942.85 498.92 944.85 476.74
  Q 945.93 464.67 945.72 455.11
  C 945.63 450.95 944.78 446.16 944.23 441.74
  Q 942.28 426.32 935.33 412.19
  C 925.36 391.93 908.46 379.25 886.99 373.52
  C 868.17 368.50 846.66 368.54 827.27 370.65
  Q 803.22 373.26 780.76 378.82
  Q 767.04 382.21 747.96 388.70
  Q 732.89 393.82 716.21 401.57
  Q 693.03 412.34 671.87 425.10
  Q 670.48 425.94 669.46 427.08
  Q 669.15 427.02 668.75 427.39
  L 662.02 432.01
  L 660.78 432.43
  Q 658.31 433.75 658.38 432.55
  L 659.10 431.71
  Q 659.81 431.51 659.95 430.97
  Q 660.46 430.96 661.40 430.16
  Q 667.79 424.71 670.72 422.13
  Q 676.41 417.12 680.26 414.39
  Q 696.60 402.79 700.89 400.39
  C 707.65 396.62 713.90 392.71 720.09 389.74
  Q 757.96 371.57 799.49 362.22
  Q 824.98 356.48 849.51 355.91
  Q 871.54 355.41 891.59 360.94
  Q 896.66 362.34 904.00 365.30
  C 922.78 372.89 937.62 386.89 947.15 405.12
  Q 951.47 413.39 953.55 420.25
  Q 957.06 431.85 957.89 439.53
  Q 958.33 443.61 958.73 447.18
  Q 959.28 452.03 959.30 454.85
  Q 959.44 472.05 959.08 475.03
  Q 957.09 491.34 956.03 496.76
  Q 954.64 503.88 950.48 517.01
  Q 948.41 523.54 943.44 535.12
  Q 939.16 545.07 934.72 552.45
  Q 918.02 580.24 896.17 598.99
  Q 855.10 634.24 802.96 641.74
  Q 767.97 646.77 729.92 638.60
  C 723.05 637.12 713.33 633.56 708.13 631.60
  C 676.68 619.70 650.43 599.80 629.36 573.87
  C 608.35 548.03 595.06 516.38 590.29 483.48
  C 588.53 471.31 588.34 459.54 589.01 447.81
  Q 590.52 421.47 601.82 397.07
  Q 602.10 396.47 601.93 396.04
  Z"
/>
<path fill="#010202" fill-opacity="0.996" d="
  M 909.34 564.30
  Q 909.37 563.51 909.97 562.73
  Q 917.78 552.57 922.59 543.87
  Q 933.54 524.06 939.30 503.58
  Q 941.44 495.97 942.88 486.47
  Q 943.98 479.19 944.70 467.75
  Q 945.95 448.02 940.93 428.71
  C 939.79 424.30 937.58 418.79 936.02 415.23
  Q 926.62 393.87 906.69 382.14
  Q 903.24 380.11 893.50 376.33
  Q 889.12 374.63 880.09 372.73
  C 867.64 370.11 854.40 369.50 841.98 370.23
  Q 841.55 370.25 832.84 370.82
  Q 828.10 371.13 823.71 371.71
  Q 810.92 373.40 807.75 373.94
  Q 799.20 375.40 790.72 377.15
  Q 782.27 378.88 773.89 381.31
  Q 760.50 385.20 752.36 387.83
  C 746.45 389.74 742.47 391.66 736.55 393.66
  Q 733.43 394.71 728.68 396.75
  Q 708.25 405.51 687.99 416.52
  C 682.32 419.60 675.74 423.71 669.46 427.08
  Q 670.48 425.94 671.87 425.10
  Q 693.03 412.34 716.21 401.57
  Q 732.89 393.82 747.96 388.70
  Q 767.04 382.21 780.76 378.82
  Q 803.22 373.26 827.27 370.65
  C 846.66 368.54 868.17 368.50 886.99 373.52
  C 908.46 379.25 925.36 391.93 935.33 412.19
  Q 942.28 426.32 944.23 441.74
  C 944.78 446.16 945.63 450.95 945.72 455.11
  Q 945.93 464.67 944.85 476.74
  Q 942.85 498.92 934.85 519.20
  C 928.49 535.34 920.66 550.28 909.67 563.93
  Q 909.49 564.16 909.34 564.30
  Z"
/>
<path fill="#010202" fill-opacity="0.996" d="
  M 612.09 382.35
  Q 612.17 381.84 612.01 381.51
  Q 611.83 381.14 611.41 381.28
  Q 611.10 381.38 610.75 381.67
  Q 611.34 380.27 612.52 379.12
  A 0.35 0.34 -20.1 0 1 613.11 379.39
  Q 612.97 380.93 612.09 382.35
  Z"
/>
<path fill="#010202" fill-opacity="0.996" d="
  M 728.75 606.69
  Q 734.26 605.87 739.74 605.33
  C 744.54 604.85 748.44 603.88 753.49 602.70
  Q 776.90 597.25 796.56 583.30
  Q 817.90 568.17 835.42 545.91
  Q 853.65 522.72 865.80 495.79
  Q 866.43 494.39 870.64 484.11
  Q 873.53 477.06 874.95 472.23
  C 876.48 467.01 879.12 459.45 880.42 453.20
  Q 881.89 446.14 884.19 432.05
  C 885.31 425.21 885.54 417.89 886.04 410.50
  Q 886.61 402.11 885.02 386.74
  Q 884.66 383.30 883.46 384.39
  Q 882.95 383.10 883.27 382.29
  A 0.81 0.81 0.0 0 1 884.82 382.45
  Q 887.39 396.63 886.87 410.26
  Q 886.70 414.73 886.32 417.74
  C 885.90 421.02 886.12 424.35 885.60 427.73
  Q 883.26 442.81 880.94 454.34
  Q 879.87 459.64 878.32 463.77
  C 876.80 467.80 875.80 472.30 874.39 476.25
  Q 857.33 524.08 824.81 559.32
  Q 818.17 566.51 807.12 576.02
  Q 797.04 584.69 787.31 590.08
  Q 771.13 599.03 754.13 603.39
  Q 741.65 606.58 728.75 606.69
  Z"
/>
<path fill="#010202" fill-opacity="0.996" d="
  M 610.43 381.99
  Q 610.49 382.57 609.85 382.71
  L 610.43 381.99
  Z"
/>
<path fill="#010202" fill-opacity="0.996" d="
  M 611.70 382.97
  Q 611.67 383.44 611.35 383.79
  Q 611.33 383.27 611.70 382.97
  Z"
/>
<path fill="#010202" fill-opacity="0.996" d="
  M 609.18 383.48
  Q 608.92 384.47 608.03 385.23
  Q 608.11 384.07 609.18 383.48
  Z"
/>
<path fill="#b8ffff" fill-opacity="0.996" d="
  M 728.75 606.69
  Q 728.66 606.62 728.58 606.56
  Q 725.85 606.52 723.75 605.77
  A 0.27 0.27 0.0 0 1 723.80 605.25
  C 726.96 604.77 728.95 604.78 732.29 603.89
  Q 741.52 601.42 751.77 596.79
  C 771.84 587.72 789.09 576.19 804.56 561.17
  Q 815.89 550.17 824.22 539.97
  C 846.93 512.15 864.28 479.89 874.59 445.11
  Q 881.50 421.82 883.15 396.18
  Q 883.15 396.15 883.15 396.11
  Q 884.11 391.06 883.51 385.92
  L 883.46 384.39
  Q 884.66 383.30 885.02 386.74
  Q 886.61 402.11 886.04 410.50
  C 885.54 417.89 885.31 425.21 884.19 432.05
  Q 881.89 446.14 880.42 453.20
  C 879.12 459.45 876.48 467.01 874.95 472.23
  Q 873.53 477.06 870.64 484.11
  Q 866.43 494.39 865.80 495.79
  Q 853.65 522.72 835.42 545.91
  Q 817.90 568.17 796.56 583.30
  Q 776.90 597.25 753.49 602.70
  C 748.44 603.88 744.54 604.85 739.74 605.33
  Q 734.26 605.87 728.75 606.69
  Z"
/>
<path fill="#010202" fill-opacity="0.996" d="
  M 610.96 384.49
  C 609.56 388.15 607.69 391.81 606.67 395.35
  Q 603.86 405.06 601.88 414.90
  Q 601.14 418.58 600.97 421.20
  C 600.75 424.43 599.98 426.47 599.92 429.62
  Q 599.86 432.56 599.15 437.81
  Q 598.70 441.20 599.03 458.50
  Q 599.08 461.18 599.66 463.97
  C 600.14 466.33 599.88 468.44 600.29 471.34
  Q 603.22 492.32 609.74 509.78
  Q 616.06 526.67 624.06 540.71
  Q 644.12 575.91 676.64 599.10
  Q 682.74 603.44 691.89 608.59
  Q 721.02 624.97 754.19 628.53
  Q 771.59 630.40 791.73 628.92
  Q 794.49 628.72 796.73 628.29
  C 798.90 627.87 800.84 627.94 803.40 627.45
  Q 807.43 626.67 815.29 625.13
  Q 817.56 624.68 819.92 623.92
  C 821.93 623.27 824.07 623.06 826.12 622.35
  Q 842.25 616.81 849.59 613.09
  Q 882.49 596.39 904.40 569.89
  Q 908.15 565.35 909.34 564.30
  C 902.55 573.93 893.41 582.93 885.00 590.24
  Q 855.72 615.68 818.51 625.00
  Q 798.44 630.03 775.93 630.41
  Q 771.91 630.48 766.09 630.13
  Q 760.84 629.82 756.28 629.41
  C 739.29 627.85 721.60 623.47 705.55 616.06
  C 700.20 613.59 696.14 611.85 692.15 609.55
  Q 673.43 598.74 660.07 586.66
  Q 635.87 564.79 619.53 533.98
  C 616.47 528.21 613.20 520.16 610.64 514.06
  C 605.88 502.69 602.87 490.55 600.50 477.76
  Q 599.91 474.52 599.04 465.43
  Q 598.39 458.52 598.25 453.05
  Q 597.57 424.74 605.50 396.96
  Q 606.54 393.33 609.84 386.11
  Q 610.38 384.93 610.96 384.49
  Z"
/>
<path fill="#010202" fill-opacity="0.996" d="
  M 607.71 385.80
  L 601.93 396.04
  L 607.71 385.80
  Z"
/>
<path fill="#010202" fill-opacity="0.996" d="
  M 883.51 385.92
  Q 884.11 391.06 883.15 396.11
  Q 882.56 390.97 883.51 385.92
  Z"
/>
<path fill="#010202" fill-opacity="0.996" d="
  M 883.15 396.18
  Q 881.50 421.82 874.59 445.11
  C 864.28 479.89 846.93 512.15 824.22 539.97
  Q 815.89 550.17 804.56 561.17
  C 789.09 576.19 771.84 587.72 751.77 596.79
  Q 741.52 601.42 732.29 603.89
  C 728.95 604.78 726.96 604.77 723.80 605.25
  A 0.27 0.27 0.0 0 0 723.75 605.77
  Q 725.85 606.52 728.58 606.56
  Q 724.51 607.20 720.42 606.23
  A 0.25 0.25 0.0 0 1 720.40 605.74
  C 724.17 604.59 728.36 604.20 732.12 603.17
  Q 746.20 599.32 758.65 592.65
  Q 759.56 592.17 760.54 591.91
  A 3.25 2.92 -64.0 0 0 761.16 591.66
  Q 779.23 581.59 787.39 575.12
  Q 804.83 561.31 817.12 547.11
  C 820.88 542.76 823.59 539.83 826.80 535.81
  Q 835.20 525.34 844.63 510.13
  Q 864.84 477.52 874.71 442.16
  Q 876.82 434.58 878.73 424.69
  Q 881.21 411.87 881.70 406.99
  Q 882.48 399.21 883.15 396.18
  Z"
/>
<path fill="#010202" fill-opacity="0.996" d="
  M 668.75 427.39
  L 662.02 432.01
  L 668.75 427.39
  Z"
/>
<path fill="#010202" fill-opacity="0.996" d="
  M 659.95 430.97
  Q 659.81 431.51 659.10 431.71
  Q 659.42 431.21 659.95 430.97
  Z"
/>
<path fill="#010202" fill-opacity="0.996" d="
  M 658.38 432.55
  Q 658.31 433.75 660.78 432.43
  Q 659.66 433.60 658.11 433.80
  A 0.42 0.41 9.3 0 1 657.68 433.21
  Q 657.91 432.72 658.38 432.55
  Z"
/>
<path fill="#010202" fill-opacity="0.996" d="
  M 764.21 580.68
  Q 763.64 580.73 763.29 580.46
  L 764.21 580.68
  Z"
/>
<path fill="#010202" fill-opacity="0.996" d="
  M 765.75 580.94
  L 765.04 580.85
  Q 765.42 580.82 765.75 580.94
  Z"
/>
</svg>
